<?xml version="1.0" standalone="no"?>
<svg xmlns="http://www.w3.org/2000/svg" xmlns:xlink="http://www.w3.org/1999/xlink" width="1063pt" height="404pt" viewBox="0.00 0.00 1063.15 404.00">
<g id="graph0" class="graph" transform="translate(4,400) scale(1)" data-name="">
<polygon fill="white" stroke="none" points="-4,4 -4,-400 1059.15,-400 1059.15,4 -4,4" style=""/>
<!-- [root] aws_instance.ubuntu&#45;apache (expand) -->
<g id="node1" class="node" pointer-events="visible" data-name="[root] aws_instance.ubuntu-apache (expand)">

<polygon fill="none" stroke="black" points="677.82,-252 501.72,-252 501.72,-216 677.82,-216 677.82,-252" style=""/>
<text text-anchor="middle" x="589.77" y="-229.8" font-family="Times,serif" font-size="14.00" style="">aws_instance.ubuntu-apache</text>
</g>
<!-- [root] aws_security_group.ubuntu&#45;apache&#45;sg (expand) -->
<g id="node2" class="node" pointer-events="visible" data-name="[root] aws_security_group.ubuntu-apache-sg (expand)">

<polygon fill="none" stroke="black" points="610.54,-180 379,-180 379,-144 610.54,-144 610.54,-180" style=""/>
<text text-anchor="middle" x="494.77" y="-157.8" font-family="Times,serif" font-size="14.00" style="">aws_security_group.ubuntu-apache-sg</text>
</g>
<!-- [root] aws_instance.ubuntu&#45;apache (expand)&#45;&gt;[root] aws_security_group.ubuntu&#45;apache&#45;sg (expand) -->
<g id="edge1" class="edge" data-name="[root] aws_instance.ubuntu-apache (expand)-&gt;[root] aws_security_group.ubuntu-apache-sg (expand)">

<path fill="none" stroke="black" d="M566.29,-215.7C554.53,-207.03 540.1,-196.4 527.29,-186.96" style=""/>
<polygon fill="black" stroke="black" points="529.66,-184.36 519.53,-181.24 525.51,-189.99 529.66,-184.36" style=""/>
</g>
<!-- [root] data.aws_ami.ubuntu_latest (expand) -->
<g id="node3" class="node" pointer-events="visible" data-name="[root] data.aws_ami.ubuntu_latest (expand)">

<polygon fill="none" stroke="black" points="360.29,-180 189.25,-180 189.25,-144 360.29,-144 360.29,-180" style=""/>
<text text-anchor="middle" x="274.77" y="-157.8" font-family="Times,serif" font-size="14.00" style="">data.aws_ami.ubuntu_latest</text>
</g>
<!-- [root] aws_instance.ubuntu&#45;apache (expand)&#45;&gt;[root] data.aws_ami.ubuntu_latest (expand) -->
<g id="edge2" class="edge" data-name="[root] aws_instance.ubuntu-apache (expand)-&gt;[root] data.aws_ami.ubuntu_latest (expand)">

<path fill="none" stroke="black" d="M511.1,-215.52C466.57,-205.62 410.71,-193.21 364.49,-182.94" style=""/>
<polygon fill="black" stroke="black" points="365.26,-179.52 354.74,-180.77 363.74,-186.36 365.26,-179.52" style=""/>
</g>
<!-- [root] var.instance_type -->
<g id="node5" class="node" pointer-events="visible" data-name="[root] var.instance_type">

<polygon fill="none" stroke="black" points="737.12,-180 628.42,-180 628.42,-144 743.12,-144 743.12,-174 737.12,-180" style=""/>
<polyline fill="none" stroke="black" points="737.12,-180 737.12,-174" style=""/>
<polyline fill="none" stroke="black" points="743.12,-174 737.12,-174" style=""/>
<text text-anchor="middle" x="685.77" y="-157.8" font-family="Times,serif" font-size="14.00" style="">var.instance_type</text>
</g>
<!-- [root] aws_instance.ubuntu&#45;apache (expand)&#45;&gt;[root] var.instance_type -->
<g id="edge3" class="edge" data-name="[root] aws_instance.ubuntu-apache (expand)-&gt;[root] var.instance_type">

<path fill="none" stroke="black" d="M613.5,-215.7C625.39,-207.03 639.96,-196.4 652.91,-186.96" style=""/>
<polygon fill="black" stroke="black" points="654.74,-189.96 660.76,-181.24 650.62,-184.3 654.74,-189.96" style=""/>
</g>
<!-- [root] var.key&#45;pair -->
<g id="node6" class="node" pointer-events="visible" data-name="[root] var.key-pair">

<polygon fill="none" stroke="black" points="838.79,-180 760.75,-180 760.75,-144 844.79,-144 844.79,-174 838.79,-180" style=""/>
<polyline fill="none" stroke="black" points="838.79,-180 838.79,-174" style=""/>
<polyline fill="none" stroke="black" points="844.79,-174 838.79,-174" style=""/>
<text text-anchor="middle" x="802.77" y="-157.8" font-family="Times,serif" font-size="14.00" style="">var.key-pair</text>
</g>
<!-- [root] aws_instance.ubuntu&#45;apache (expand)&#45;&gt;[root] var.key&#45;pair -->
<g id="edge4" class="edge" data-name="[root] aws_instance.ubuntu-apache (expand)-&gt;[root] var.key-pair">

<path fill="none" stroke="black" d="M643.43,-215.53C672.46,-206.06 709.21,-194.04 749.79,-180.65" style=""/>
<polygon fill="black" stroke="black" points="750.64,-184.05 759.04,-177.59 748.45,-177.4 750.64,-184.05" style=""/>
</g>
<!-- [root] provider[&quot;registry.terraform.io/hashicorp/aws&quot;] -->
<g id="node4" class="node" pointer-events="visible" data-name="[root] provider[&quot;registry.terraform.io/hashicorp/aws&quot;]">

<polygon fill="none" stroke="black" points="274.77,-108 0.23,-90 274.77,-72 549.31,-90 274.77,-108" style=""/>
<text text-anchor="middle" x="274.77" y="-85.8" font-family="Times,serif" font-size="14.00" style="">provider["registry.terraform.io/hashicorp/aws"]</text>
</g>
<!-- [root] aws_security_group.ubuntu&#45;apache&#45;sg (expand)&#45;&gt;[root] provider[&quot;registry.terraform.io/hashicorp/aws&quot;] -->
<g id="edge5" class="edge" data-name="[root] aws_security_group.ubuntu-apache-sg (expand)-&gt;[root] provider[&quot;registry.terraform.io/hashicorp/aws&quot;]">

<path fill="none" stroke="black" d="M439.82,-143.52C406.66,-132.97 364.51,-119.55 331.1,-108.92" style=""/>
<polygon fill="black" stroke="black" points="332.17,-105.59 321.58,-105.89 330.05,-112.26 332.17,-105.59" style=""/>
</g>
<!-- [root] var.namespace -->
<g id="node7" class="node" pointer-events="visible" data-name="[root] var.namespace">

<polygon fill="none" stroke="black" points="660.05,-108 567.49,-108 567.49,-72 666.05,-72 666.05,-102 660.05,-108" style=""/>
<polyline fill="none" stroke="black" points="660.05,-108 660.05,-102" style=""/>
<polyline fill="none" stroke="black" points="666.05,-102 660.05,-102" style=""/>
<text text-anchor="middle" x="616.77" y="-85.8" font-family="Times,serif" font-size="14.00" style="">var.namespace</text>
</g>
<!-- [root] aws_security_group.ubuntu&#45;apache&#45;sg (expand)&#45;&gt;[root] var.namespace -->
<g id="edge6" class="edge" data-name="[root] aws_security_group.ubuntu-apache-sg (expand)-&gt;[root] var.namespace">

<path fill="none" stroke="black" d="M525.24,-143.52C540.94,-134.51 560.26,-123.42 577.1,-113.76" style=""/>
<polygon fill="black" stroke="black" points="578.44,-117.03 585.38,-109.01 574.96,-110.95 578.44,-117.03" style=""/>
</g>
<!-- [root] data.aws_ami.ubuntu_latest (expand)&#45;&gt;[root] provider[&quot;registry.terraform.io/hashicorp/aws&quot;] -->
<g id="edge7" class="edge" data-name="[root] data.aws_ami.ubuntu_latest (expand)-&gt;[root] provider[&quot;registry.terraform.io/hashicorp/aws&quot;]">

<path fill="none" stroke="black" d="M274.77,-143.7C274.77,-136.41 274.77,-127.73 274.77,-119.54" style=""/>
<polygon fill="black" stroke="black" points="278.27,-119.62 274.77,-109.62 271.27,-119.62 278.27,-119.62" style=""/>
</g>
<!-- [root] var.region -->
<g id="node8" class="node" pointer-events="visible" data-name="[root] var.region">

<polygon fill="none" stroke="black" points="305.41,-36 238.13,-36 238.13,0 311.41,0 311.41,-30 305.41,-36" style=""/>
<polyline fill="none" stroke="black" points="305.41,-36 305.41,-30" style=""/>
<polyline fill="none" stroke="black" points="311.41,-30 305.41,-30" style=""/>
<text text-anchor="middle" x="274.77" y="-13.8" font-family="Times,serif" font-size="14.00" style="">var.region</text>
</g>
<!-- [root] provider[&quot;registry.terraform.io/hashicorp/aws&quot;]&#45;&gt;[root] var.region -->
<g id="edge10" class="edge" data-name="[root] provider[&quot;registry.terraform.io/hashicorp/aws&quot;]-&gt;[root] var.region">

<path fill="none" stroke="black" d="M274.77,-71.7C274.77,-64.41 274.77,-55.73 274.77,-47.54" style=""/>
<polygon fill="black" stroke="black" points="278.27,-47.62 274.77,-37.62 271.27,-47.62 278.27,-47.62" style=""/>
</g>
<!-- [root] output.ubuntu_apache_ip (expand) -->
<g id="node9" class="node" pointer-events="visible" data-name="[root] output.ubuntu_apache_ip (expand)">

<ellipse fill="none" stroke="black" cx="372.77" cy="-306" rx="170.12" ry="18" style=""/>
<text text-anchor="middle" x="372.77" y="-301.8" font-family="Times,serif" font-size="14.00" style="">[root] output.ubuntu_apache_ip (expand)</text>
</g>
<!-- [root] output.ubuntu_apache_ip (expand)&#45;&gt;[root] aws_instance.ubuntu&#45;apache (expand) -->
<g id="edge8" class="edge" data-name="[root] output.ubuntu_apache_ip (expand)-&gt;[root] aws_instance.ubuntu-apache (expand)">

<path fill="none" stroke="black" d="M424.2,-288.41C454.37,-278.68 492.79,-266.29 525.01,-255.89" style=""/>
<polygon fill="black" stroke="black" points="525.8,-259.31 534.25,-252.91 523.65,-252.65 525.8,-259.31" style=""/>
</g>
<!-- [root] provider[&quot;registry.terraform.io/hashicorp/aws&quot;] (close) -->
<g id="node10" class="node" pointer-events="visible" data-name="[root] provider[&quot;registry.terraform.io/hashicorp/aws&quot;] (close)">

<ellipse fill="none" stroke="black" cx="807.77" cy="-306" rx="247.26" ry="18" style=""/>
<text text-anchor="middle" x="807.77" y="-301.8" font-family="Times,serif" font-size="14.00" style="">[root] provider["registry.terraform.io/hashicorp/aws"] (close)</text>
</g>
<!-- [root] provider[&quot;registry.terraform.io/hashicorp/aws&quot;] (close)&#45;&gt;[root] aws_instance.ubuntu&#45;apache (expand) -->
<g id="edge9" class="edge" data-name="[root] provider[&quot;registry.terraform.io/hashicorp/aws&quot;] (close)-&gt;[root] aws_instance.ubuntu-apache (expand)">

<path fill="none" stroke="black" d="M754.72,-287.97C724.6,-278.29 686.66,-266.11 654.76,-255.87" style=""/>
<polygon fill="black" stroke="black" points="656.23,-252.66 645.64,-252.94 654.09,-259.33 656.23,-252.66" style=""/>
</g>
<!-- [root] root -->
<g id="node11" class="node" pointer-events="visible" data-name="[root] root">

<ellipse fill="none" stroke="black" cx="589.77" cy="-378" rx="50.99" ry="18" style=""/>
<text text-anchor="middle" x="589.77" y="-373.8" font-family="Times,serif" font-size="14.00" style="">[root] root</text>
</g>
<!-- [root] root&#45;&gt;[root] output.ubuntu_apache_ip (expand) -->
<g id="edge11" class="edge" data-name="[root] root-&gt;[root] output.ubuntu_apache_ip (expand)">

<path fill="none" stroke="black" d="M552.96,-365.13C520.57,-354.68 472.77,-339.26 434.53,-326.92" style=""/>
<polygon fill="black" stroke="black" points="436.05,-323.74 425.46,-324 433.91,-330.4 436.05,-323.74" style=""/>
</g>
<!-- [root] root&#45;&gt;[root] provider[&quot;registry.terraform.io/hashicorp/aws&quot;] (close) -->
<g id="edge12" class="edge" data-name="[root] root-&gt;[root] provider[&quot;registry.terraform.io/hashicorp/aws&quot;] (close)">

<path fill="none" stroke="black" d="M626.26,-365.28C658.39,-354.97 705.9,-339.71 744.26,-327.39" style=""/>
<polygon fill="black" stroke="black" points="744.92,-330.86 753.37,-324.47 742.78,-324.19 744.92,-330.86" style=""/>
</g>
</g>
</svg>